<svg width="330" height="33" viewBox="0 0 330 33" fill="none" xmlns="http://www.w3.org/2000/svg">
<path d="M13.1553 15.1631H25.0498V30.708C23.4775 31.2275 21.8438 31.6445 20.1484 31.959C18.4531 32.2598 16.5322 32.4102 14.3857 32.4102C11.4053 32.4102 8.87598 31.8223 6.79785 30.6465C4.71973 29.4707 3.14062 27.7344 2.06055 25.4375C0.980469 23.1406 0.44043 20.3174 0.44043 16.9678C0.44043 13.8232 1.04199 11.1025 2.24512 8.80566C3.46191 6.50879 5.23242 4.73145 7.55664 3.47363C9.89453 2.21582 12.7451 1.58691 16.1084 1.58691C17.6943 1.58691 19.2598 1.75781 20.8047 2.09961C22.3496 2.44141 23.751 2.88574 25.0088 3.43262L22.8965 8.51855C21.9805 8.05371 20.9346 7.66406 19.7588 7.34961C18.583 7.03516 17.3525 6.87793 16.0674 6.87793C14.2217 6.87793 12.6152 7.30176 11.248 8.14941C9.89453 8.99707 8.8418 10.1865 8.08984 11.7178C7.35156 13.2354 6.98242 15.0264 6.98242 17.0908C6.98242 19.0459 7.24902 20.7822 7.78223 22.2998C8.31543 23.8037 9.15625 24.9863 10.3047 25.8477C11.4531 26.6953 12.9502 27.1191 14.7959 27.1191C15.6982 27.1191 16.457 27.0781 17.0723 26.9961C17.7012 26.9004 18.2891 26.8047 18.8359 26.709V20.4541H13.1553V15.1631ZM41.1074 8.60059C44.1836 8.60059 46.542 9.27051 48.1826 10.6104C49.8232 11.9502 50.6436 13.9873 50.6436 16.7217V32H46.2754L45.0654 28.8828H44.9014C44.2451 29.7031 43.5752 30.373 42.8916 30.8926C42.208 31.4121 41.4219 31.7949 40.5332 32.041C39.6445 32.2871 38.5645 32.4102 37.293 32.4102C35.9395 32.4102 34.7227 32.1504 33.6426 31.6309C32.5762 31.1113 31.7354 30.3184 31.1201 29.252C30.5049 28.1719 30.1973 26.8047 30.1973 25.1504C30.1973 22.7168 31.0518 20.9258 32.7607 19.7773C34.4697 18.6152 37.0332 17.9727 40.4512 17.8496L44.4297 17.7266V16.7217C44.4297 15.5186 44.1152 14.6367 43.4863 14.0762C42.8574 13.5156 41.9824 13.2354 40.8613 13.2354C39.7539 13.2354 38.667 13.3926 37.6006 13.707C36.5342 14.0215 35.4678 14.418 34.4014 14.8965L32.3301 10.6719C33.5469 10.0293 34.9072 9.52344 36.4111 9.1543C37.9287 8.78516 39.4941 8.60059 41.1074 8.60059ZM44.4297 21.377L42.0098 21.459C39.9863 21.5137 38.5781 21.876 37.7852 22.5459C37.0059 23.2158 36.6162 24.0977 36.6162 25.1914C36.6162 26.1484 36.8965 26.832 37.457 27.2422C38.0176 27.6387 38.749 27.8369 39.6514 27.8369C40.9912 27.8369 42.1191 27.4404 43.0352 26.6475C43.9648 25.8545 44.4297 24.7266 44.4297 23.2637V21.377ZM63.3584 0.0898438V7.51367C63.3584 8.375 63.3311 9.22949 63.2764 10.0771C63.2354 10.9248 63.1807 11.5811 63.1123 12.0459H63.3584C63.96 11.1025 64.7803 10.3027 65.8193 9.64648C66.8584 8.97656 68.2051 8.6416 69.8594 8.6416C72.4297 8.6416 74.5146 9.64648 76.1143 11.6562C77.7139 13.666 78.5137 16.6123 78.5137 20.4951C78.5137 23.1064 78.1445 25.3008 77.4062 27.0781C76.668 28.8418 75.6357 30.1748 74.3096 31.0771C72.9834 31.9658 71.4453 32.4102 69.6953 32.4102C68.0137 32.4102 66.6875 32.1094 65.7168 31.5078C64.7461 30.9062 63.96 30.2295 63.3584 29.4775H62.9277L61.8818 32H57.1035V0.0898438H63.3584ZM67.8496 13.6455C66.7559 13.6455 65.8877 13.8711 65.2451 14.3223C64.6025 14.7734 64.1309 15.4502 63.8301 16.3525C63.543 17.2549 63.3857 18.3965 63.3584 19.7773V20.4541C63.3584 22.6826 63.6865 24.3916 64.3428 25.5811C64.999 26.7568 66.1953 27.3447 67.9316 27.3447C69.2168 27.3447 70.2354 26.75 70.9873 25.5605C71.7529 24.3711 72.1357 22.6553 72.1357 20.4131C72.1357 18.1709 71.7529 16.4824 70.9873 15.3477C70.2217 14.2129 69.1758 13.6455 67.8496 13.6455ZM96.4785 8.6416C96.793 8.6416 97.1553 8.66211 97.5654 8.70312C97.9893 8.73047 98.3311 8.77148 98.5908 8.82617L98.1191 14.6914C97.9141 14.623 97.6201 14.5752 97.2373 14.5479C96.8682 14.5068 96.5469 14.4863 96.2734 14.4863C95.4668 14.4863 94.6807 14.5889 93.915 14.7939C93.1631 14.999 92.4863 15.334 91.8848 15.7988C91.2832 16.25 90.8047 16.8516 90.4492 17.6035C90.1074 18.3418 89.9365 19.251 89.9365 20.3311V32H83.6816V9.07227H88.4189L89.3418 12.9277H89.6494C90.1006 12.1484 90.6611 11.4375 91.3311 10.7949C92.0146 10.1387 92.7871 9.61914 93.6484 9.23633C94.5234 8.83984 95.4668 8.6416 96.4785 8.6416ZM109.009 9.07227V32H102.754V9.07227H109.009ZM105.892 0.0898438C106.821 0.0898438 107.621 0.308594 108.291 0.746094C108.961 1.16992 109.296 1.96973 109.296 3.14551C109.296 4.30762 108.961 5.11426 108.291 5.56543C107.621 6.00293 106.821 6.22168 105.892 6.22168C104.948 6.22168 104.142 6.00293 103.472 5.56543C102.815 5.11426 102.487 4.30762 102.487 3.14551C102.487 1.96973 102.815 1.16992 103.472 0.746094C104.142 0.308594 104.948 0.0898438 105.892 0.0898438ZM125.046 8.6416C127.165 8.6416 128.99 9.05176 130.521 9.87207C132.053 10.6787 133.235 11.8545 134.069 13.3994C134.903 14.9443 135.32 16.8311 135.32 19.0596V22.0947H120.534C120.603 23.8584 121.129 25.2461 122.113 26.2578C123.111 27.2559 124.492 27.7549 126.256 27.7549C127.719 27.7549 129.059 27.6045 130.275 27.3037C131.492 27.0029 132.743 26.5518 134.028 25.9502V30.79C132.894 31.3506 131.704 31.7607 130.46 32.0205C129.229 32.2803 127.732 32.4102 125.969 32.4102C123.672 32.4102 121.635 31.9863 119.857 31.1387C118.094 30.291 116.706 28.999 115.694 27.2627C114.696 25.5264 114.197 23.3389 114.197 20.7002C114.197 18.0205 114.648 15.792 115.551 14.0146C116.467 12.2236 117.738 10.8838 119.365 9.99512C120.992 9.09277 122.886 8.6416 125.046 8.6416ZM125.087 13.0918C123.87 13.0918 122.858 13.4814 122.052 14.2607C121.259 15.04 120.801 16.2637 120.678 17.9316H129.455C129.441 17.002 129.271 16.1748 128.942 15.4502C128.628 14.7256 128.149 14.1514 127.507 13.7275C126.878 13.3037 126.071 13.0918 125.087 13.0918ZM146.661 32H140.406V0.0898438H146.661V32ZM164.646 2.01758H173.978C177.97 2.01758 180.991 2.57812 183.042 3.69922C185.093 4.82031 186.118 6.78906 186.118 9.60547C186.118 10.7402 185.934 11.7656 185.564 12.6816C185.209 13.5977 184.689 14.3496 184.006 14.9375C183.322 15.5254 182.488 15.9082 181.504 16.0859V16.291C182.502 16.4961 183.404 16.8516 184.211 17.3574C185.018 17.8496 185.66 18.5742 186.139 19.5312C186.631 20.4746 186.877 21.7324 186.877 23.3047C186.877 25.123 186.433 26.6816 185.544 27.9805C184.655 29.2793 183.384 30.2773 181.729 30.9746C180.089 31.6582 178.134 32 175.864 32H164.646V2.01758ZM171.004 13.8916H174.695C176.541 13.8916 177.819 13.6045 178.53 13.0303C179.241 12.4424 179.597 11.5811 179.597 10.4463C179.597 9.29785 179.173 8.47754 178.325 7.98535C177.491 7.47949 176.165 7.22656 174.347 7.22656H171.004V13.8916ZM171.004 18.9365V26.75H175.146C177.061 26.75 178.394 26.3809 179.146 25.6426C179.897 24.9043 180.273 23.9131 180.273 22.6689C180.273 21.9307 180.109 21.2812 179.781 20.7207C179.453 20.1602 178.899 19.7227 178.12 19.4082C177.354 19.0938 176.295 18.9365 174.941 18.9365H171.004ZM201.766 8.60059C204.842 8.60059 207.2 9.27051 208.841 10.6104C210.481 11.9502 211.302 13.9873 211.302 16.7217V32H206.934L205.724 28.8828H205.56C204.903 29.7031 204.233 30.373 203.55 30.8926C202.866 31.4121 202.08 31.7949 201.191 32.041C200.303 32.2871 199.223 32.4102 197.951 32.4102C196.598 32.4102 195.381 32.1504 194.301 31.6309C193.234 31.1113 192.394 30.3184 191.778 29.252C191.163 28.1719 190.855 26.8047 190.855 25.1504C190.855 22.7168 191.71 20.9258 193.419 19.7773C195.128 18.6152 197.691 17.9727 201.109 17.8496L205.088 17.7266V16.7217C205.088 15.5186 204.773 14.6367 204.145 14.0762C203.516 13.5156 202.641 13.2354 201.52 13.2354C200.412 13.2354 199.325 13.3926 198.259 13.707C197.192 14.0215 196.126 14.418 195.06 14.8965L192.988 10.6719C194.205 10.0293 195.565 9.52344 197.069 9.1543C198.587 8.78516 200.152 8.60059 201.766 8.60059ZM205.088 21.377L202.668 21.459C200.645 21.5137 199.236 21.876 198.443 22.5459C197.664 23.2158 197.274 24.0977 197.274 25.1914C197.274 26.1484 197.555 26.832 198.115 27.2422C198.676 27.6387 199.407 27.8369 200.31 27.8369C201.649 27.8369 202.777 27.4404 203.693 26.6475C204.623 25.8545 205.088 24.7266 205.088 23.2637V21.377ZM230.559 8.6416C230.873 8.6416 231.235 8.66211 231.646 8.70312C232.069 8.73047 232.411 8.77148 232.671 8.82617L232.199 14.6914C231.994 14.623 231.7 14.5752 231.317 14.5479C230.948 14.5068 230.627 14.4863 230.354 14.4863C229.547 14.4863 228.761 14.5889 227.995 14.7939C227.243 14.999 226.566 15.334 225.965 15.7988C225.363 16.25 224.885 16.8516 224.529 17.6035C224.188 18.3418 224.017 19.251 224.017 20.3311V32H217.762V9.07227H222.499L223.422 12.9277H223.729C224.181 12.1484 224.741 11.4375 225.411 10.7949C226.095 10.1387 226.867 9.61914 227.729 9.23633C228.604 8.83984 229.547 8.6416 230.559 8.6416ZM243.089 0.0898438V7.51367C243.089 8.375 243.062 9.22949 243.007 10.0771C242.966 10.9248 242.911 11.5811 242.843 12.0459H243.089C243.69 11.1025 244.511 10.3027 245.55 9.64648C246.589 8.97656 247.936 8.6416 249.59 8.6416C252.16 8.6416 254.245 9.64648 255.845 11.6562C257.444 13.666 258.244 16.6123 258.244 20.4951C258.244 23.1064 257.875 25.3008 257.137 27.0781C256.398 28.8418 255.366 30.1748 254.04 31.0771C252.714 31.9658 251.176 32.4102 249.426 32.4102C247.744 32.4102 246.418 32.1094 245.447 31.5078C244.477 30.9062 243.69 30.2295 243.089 29.4775H242.658L241.612 32H236.834V0.0898438H243.089ZM247.58 13.6455C246.486 13.6455 245.618 13.8711 244.976 14.3223C244.333 14.7734 243.861 15.4502 243.561 16.3525C243.273 17.2549 243.116 18.3965 243.089 19.7773V20.4541C243.089 22.6826 243.417 24.3916 244.073 25.5811C244.729 26.7568 245.926 27.3447 247.662 27.3447C248.947 27.3447 249.966 26.75 250.718 25.5605C251.483 24.3711 251.866 22.6553 251.866 20.4131C251.866 18.1709 251.483 16.4824 250.718 15.3477C249.952 14.2129 248.906 13.6455 247.58 13.6455ZM284.248 20.4951C284.248 22.4092 283.988 24.1045 283.469 25.5811C282.963 27.0576 282.218 28.3086 281.233 29.334C280.263 30.3457 279.087 31.1113 277.706 31.6309C276.339 32.1504 274.794 32.4102 273.071 32.4102C271.458 32.4102 269.975 32.1504 268.621 31.6309C267.281 31.1113 266.112 30.3457 265.114 29.334C264.13 28.3086 263.364 27.0576 262.817 25.5811C262.284 24.1045 262.018 22.4092 262.018 20.4951C262.018 17.9521 262.469 15.7988 263.371 14.0352C264.273 12.2715 265.559 10.9316 267.227 10.0156C268.895 9.09961 270.884 8.6416 273.194 8.6416C275.341 8.6416 277.241 9.09961 278.896 10.0156C280.563 10.9316 281.869 12.2715 282.812 14.0352C283.77 15.7988 284.248 17.9521 284.248 20.4951ZM268.396 20.4951C268.396 21.999 268.56 23.2637 268.888 24.2891C269.216 25.3145 269.729 26.0869 270.426 26.6064C271.123 27.126 272.032 27.3857 273.153 27.3857C274.261 27.3857 275.156 27.126 275.84 26.6064C276.537 26.0869 277.043 25.3145 277.357 24.2891C277.686 23.2637 277.85 21.999 277.85 20.4951C277.85 18.9775 277.686 17.7197 277.357 16.7217C277.043 15.71 276.537 14.9512 275.84 14.4453C275.143 13.9395 274.233 13.6865 273.112 13.6865C271.458 13.6865 270.255 14.2539 269.503 15.3887C268.765 16.5234 268.396 18.2256 268.396 20.4951ZM305.412 25.1914C305.412 26.75 305.043 28.0693 304.305 29.1494C303.58 30.2158 302.493 31.0293 301.044 31.5898C299.595 32.1367 297.79 32.4102 295.63 32.4102C294.03 32.4102 292.656 32.3076 291.508 32.1025C290.373 31.8975 289.225 31.5557 288.062 31.0771V25.9092C289.307 26.4697 290.64 26.9346 292.062 27.3037C293.497 27.6592 294.755 27.8369 295.835 27.8369C297.052 27.8369 297.92 27.6592 298.439 27.3037C298.973 26.9346 299.239 26.4561 299.239 25.8682C299.239 25.4854 299.13 25.1436 298.911 24.8428C298.706 24.5283 298.255 24.1797 297.558 23.7969C296.86 23.4004 295.767 22.8877 294.276 22.2588C292.841 21.6572 291.658 21.0488 290.729 20.4336C289.812 19.8184 289.129 19.0938 288.678 18.2598C288.24 17.4121 288.021 16.3389 288.021 15.04C288.021 12.9209 288.842 11.3281 290.482 10.2617C292.137 9.18164 294.345 8.6416 297.106 8.6416C298.528 8.6416 299.882 8.78516 301.167 9.07227C302.466 9.35938 303.799 9.81738 305.166 10.4463L303.279 14.958C302.145 14.4658 301.071 14.0625 300.06 13.748C299.062 13.4336 298.043 13.2764 297.004 13.2764C296.088 13.2764 295.397 13.3994 294.933 13.6455C294.468 13.8916 294.235 14.2676 294.235 14.7734C294.235 15.1426 294.352 15.4707 294.584 15.7578C294.83 16.0449 295.295 16.3662 295.979 16.7217C296.676 17.0635 297.694 17.5078 299.034 18.0547C300.333 18.5879 301.461 19.1484 302.418 19.7363C303.375 20.3105 304.113 21.0283 304.633 21.8896C305.152 22.7373 305.412 23.8379 305.412 25.1914ZM319.686 8.60059C322.762 8.60059 325.12 9.27051 326.761 10.6104C328.401 11.9502 329.222 13.9873 329.222 16.7217V32H324.854L323.644 28.8828H323.479C322.823 29.7031 322.153 30.373 321.47 30.8926C320.786 31.4121 320 31.7949 319.111 32.041C318.223 32.2871 317.143 32.4102 315.871 32.4102C314.518 32.4102 313.301 32.1504 312.221 31.6309C311.154 31.1113 310.313 30.3184 309.698 29.252C309.083 28.1719 308.775 26.8047 308.775 25.1504C308.775 22.7168 309.63 20.9258 311.339 19.7773C313.048 18.6152 315.611 17.9727 319.029 17.8496L323.008 17.7266V16.7217C323.008 15.5186 322.693 14.6367 322.064 14.0762C321.436 13.5156 320.561 13.2354 319.439 13.2354C318.332 13.2354 317.245 13.3926 316.179 13.707C315.112 14.0215 314.046 14.418 312.979 14.8965L310.908 10.6719C312.125 10.0293 313.485 9.52344 314.989 9.1543C316.507 8.78516 318.072 8.60059 319.686 8.60059ZM323.008 21.377L320.588 21.459C318.564 21.5137 317.156 21.876 316.363 22.5459C315.584 23.2158 315.194 24.0977 315.194 25.1914C315.194 26.1484 315.475 26.832 316.035 27.2422C316.596 27.6387 317.327 27.8369 318.229 27.8369C319.569 27.8369 320.697 27.4404 321.613 26.6475C322.543 25.8545 323.008 24.7266 323.008 23.2637V21.377Z" fill="#141414"/>
</svg>
