<svg width="311" height="33" viewBox="0 0 311 33" fill="none" xmlns="http://www.w3.org/2000/svg">
<path d="M13.1553 15.1631H25.0498V30.708C23.4775 31.2275 21.8438 31.6445 20.1484 31.959C18.4531 32.2598 16.5322 32.4102 14.3857 32.4102C11.4053 32.4102 8.87598 31.8223 6.79785 30.6465C4.71973 29.4707 3.14062 27.7344 2.06055 25.4375C0.980469 23.1406 0.44043 20.3174 0.44043 16.9678C0.44043 13.8232 1.04199 11.1025 2.24512 8.80566C3.46191 6.50879 5.23242 4.73145 7.55664 3.47363C9.89453 2.21582 12.7451 1.58691 16.1084 1.58691C17.6943 1.58691 19.2598 1.75781 20.8047 2.09961C22.3496 2.44141 23.751 2.88574 25.0088 3.43262L22.8965 8.51855C21.9805 8.05371 20.9346 7.66406 19.7588 7.34961C18.583 7.03516 17.3525 6.87793 16.0674 6.87793C14.2217 6.87793 12.6152 7.30176 11.248 8.14941C9.89453 8.99707 8.8418 10.1865 8.08984 11.7178C7.35156 13.2354 6.98242 15.0264 6.98242 17.0908C6.98242 19.0459 7.24902 20.7822 7.78223 22.2998C8.31543 23.8037 9.15625 24.9863 10.3047 25.8477C11.4531 26.6953 12.9502 27.1191 14.7959 27.1191C15.6982 27.1191 16.457 27.0781 17.0723 26.9961C17.7012 26.9004 18.2891 26.8047 18.8359 26.709V20.4541H13.1553V15.1631ZM41.1074 8.60059C44.1836 8.60059 46.542 9.27051 48.1826 10.6104C49.8232 11.9502 50.6436 13.9873 50.6436 16.7217V32H46.2754L45.0654 28.8828H44.9014C44.2451 29.7031 43.5752 30.373 42.8916 30.8926C42.208 31.4121 41.4219 31.7949 40.5332 32.041C39.6445 32.2871 38.5645 32.4102 37.293 32.4102C35.9395 32.4102 34.7227 32.1504 33.6426 31.6309C32.5762 31.1113 31.7354 30.3184 31.1201 29.252C30.5049 28.1719 30.1973 26.8047 30.1973 25.1504C30.1973 22.7168 31.0518 20.9258 32.7607 19.7773C34.4697 18.6152 37.0332 17.9727 40.4512 17.8496L44.4297 17.7266V16.7217C44.4297 15.5186 44.1152 14.6367 43.4863 14.0762C42.8574 13.5156 41.9824 13.2354 40.8613 13.2354C39.7539 13.2354 38.667 13.3926 37.6006 13.707C36.5342 14.0215 35.4678 14.418 34.4014 14.8965L32.3301 10.6719C33.5469 10.0293 34.9072 9.52344 36.4111 9.1543C37.9287 8.78516 39.4941 8.60059 41.1074 8.60059ZM44.4297 21.377L42.0098 21.459C39.9863 21.5137 38.5781 21.876 37.7852 22.5459C37.0059 23.2158 36.6162 24.0977 36.6162 25.1914C36.6162 26.1484 36.8965 26.832 37.457 27.2422C38.0176 27.6387 38.749 27.8369 39.6514 27.8369C40.9912 27.8369 42.1191 27.4404 43.0352 26.6475C43.9648 25.8545 44.4297 24.7266 44.4297 23.2637V21.377ZM63.3584 0.0898438V7.51367C63.3584 8.375 63.3311 9.22949 63.2764 10.0771C63.2354 10.9248 63.1807 11.5811 63.1123 12.0459H63.3584C63.96 11.1025 64.7803 10.3027 65.8193 9.64648C66.8584 8.97656 68.2051 8.6416 69.8594 8.6416C72.4297 8.6416 74.5146 9.64648 76.1143 11.6562C77.7139 13.666 78.5137 16.6123 78.5137 20.4951C78.5137 23.1064 78.1445 25.3008 77.4062 27.0781C76.668 28.8418 75.6357 30.1748 74.3096 31.0771C72.9834 31.9658 71.4453 32.4102 69.6953 32.4102C68.0137 32.4102 66.6875 32.1094 65.7168 31.5078C64.7461 30.9062 63.96 30.2295 63.3584 29.4775H62.9277L61.8818 32H57.1035V0.0898438H63.3584ZM67.8496 13.6455C66.7559 13.6455 65.8877 13.8711 65.2451 14.3223C64.6025 14.7734 64.1309 15.4502 63.8301 16.3525C63.543 17.2549 63.3857 18.3965 63.3584 19.7773V20.4541C63.3584 22.6826 63.6865 24.3916 64.3428 25.5811C64.999 26.7568 66.1953 27.3447 67.9316 27.3447C69.2168 27.3447 70.2354 26.75 70.9873 25.5605C71.7529 24.3711 72.1357 22.6553 72.1357 20.4131C72.1357 18.1709 71.7529 16.4824 70.9873 15.3477C70.2217 14.2129 69.1758 13.6455 67.8496 13.6455ZM96.4785 8.6416C96.793 8.6416 97.1553 8.66211 97.5654 8.70312C97.9893 8.73047 98.3311 8.77148 98.5908 8.82617L98.1191 14.6914C97.9141 14.623 97.6201 14.5752 97.2373 14.5479C96.8682 14.5068 96.5469 14.4863 96.2734 14.4863C95.4668 14.4863 94.6807 14.5889 93.915 14.7939C93.1631 14.999 92.4863 15.334 91.8848 15.7988C91.2832 16.25 90.8047 16.8516 90.4492 17.6035C90.1074 18.3418 89.9365 19.251 89.9365 20.3311V32H83.6816V9.07227H88.4189L89.3418 12.9277H89.6494C90.1006 12.1484 90.6611 11.4375 91.3311 10.7949C92.0146 10.1387 92.7871 9.61914 93.6484 9.23633C94.5234 8.83984 95.4668 8.6416 96.4785 8.6416ZM109.009 9.07227V32H102.754V9.07227H109.009ZM105.892 0.0898438C106.821 0.0898438 107.621 0.308594 108.291 0.746094C108.961 1.16992 109.296 1.96973 109.296 3.14551C109.296 4.30762 108.961 5.11426 108.291 5.56543C107.621 6.00293 106.821 6.22168 105.892 6.22168C104.948 6.22168 104.142 6.00293 103.472 5.56543C102.815 5.11426 102.487 4.30762 102.487 3.14551C102.487 1.96973 102.815 1.16992 103.472 0.746094C104.142 0.308594 104.948 0.0898438 105.892 0.0898438ZM125.046 8.6416C127.165 8.6416 128.99 9.05176 130.521 9.87207C132.053 10.6787 133.235 11.8545 134.069 13.3994C134.903 14.9443 135.32 16.8311 135.32 19.0596V22.0947H120.534C120.603 23.8584 121.129 25.2461 122.113 26.2578C123.111 27.2559 124.492 27.7549 126.256 27.7549C127.719 27.7549 129.059 27.6045 130.275 27.3037C131.492 27.0029 132.743 26.5518 134.028 25.9502V30.79C132.894 31.3506 131.704 31.7607 130.46 32.0205C129.229 32.2803 127.732 32.4102 125.969 32.4102C123.672 32.4102 121.635 31.9863 119.857 31.1387C118.094 30.291 116.706 28.999 115.694 27.2627C114.696 25.5264 114.197 23.3389 114.197 20.7002C114.197 18.0205 114.648 15.792 115.551 14.0146C116.467 12.2236 117.738 10.8838 119.365 9.99512C120.992 9.09277 122.886 8.6416 125.046 8.6416ZM125.087 13.0918C123.87 13.0918 122.858 13.4814 122.052 14.2607C121.259 15.04 120.801 16.2637 120.678 17.9316H129.455C129.441 17.002 129.271 16.1748 128.942 15.4502C128.628 14.7256 128.149 14.1514 127.507 13.7275C126.878 13.3037 126.071 13.0918 125.087 13.0918ZM146.661 32H140.406V0.0898438H146.661V32ZM183.001 32L180.827 24.8633H169.896L167.723 32H160.873L171.455 1.89453H179.228L189.851 32H183.001ZM179.31 19.5312L177.136 12.5586C176.999 12.0938 176.814 11.499 176.582 10.7744C176.363 10.0361 176.138 9.29102 175.905 8.53906C175.687 7.77344 175.509 7.11035 175.372 6.5498C175.235 7.11035 175.044 7.80762 174.798 8.6416C174.565 9.46191 174.34 10.2412 174.121 10.9795C173.902 11.7178 173.745 12.2441 173.649 12.5586L171.496 19.5312H179.31ZM220.079 8.6416C222.677 8.6416 224.639 9.31152 225.965 10.6514C227.305 11.9775 227.975 14.1104 227.975 17.0498V32H221.699V18.6084C221.699 16.9678 221.419 15.7305 220.858 14.8965C220.298 14.0625 219.43 13.6455 218.254 13.6455C216.6 13.6455 215.424 14.2402 214.727 15.4297C214.029 16.6055 213.681 18.2939 213.681 20.4951V32H207.426V18.6084C207.426 17.5146 207.303 16.5986 207.057 15.8604C206.811 15.1221 206.435 14.5684 205.929 14.1992C205.423 13.8301 204.773 13.6455 203.98 13.6455C202.818 13.6455 201.902 13.9395 201.232 14.5273C200.576 15.1016 200.104 15.9561 199.817 17.0908C199.544 18.2119 199.407 19.5859 199.407 21.2129V32H193.152V9.07227H197.931L198.771 12.0049H199.12C199.585 11.2119 200.166 10.5693 200.863 10.0771C201.574 9.58496 202.354 9.22266 203.201 8.99023C204.049 8.75781 204.91 8.6416 205.785 8.6416C207.467 8.6416 208.889 8.91504 210.051 9.46191C211.227 10.0088 212.129 10.8564 212.758 12.0049H213.312C213.995 10.8291 214.959 9.97461 216.203 9.44141C217.461 8.9082 218.753 8.6416 220.079 8.6416ZM243.807 8.60059C246.883 8.60059 249.241 9.27051 250.882 10.6104C252.522 11.9502 253.343 13.9873 253.343 16.7217V32H248.975L247.765 28.8828H247.601C246.944 29.7031 246.274 30.373 245.591 30.8926C244.907 31.4121 244.121 31.7949 243.232 32.041C242.344 32.2871 241.264 32.4102 239.992 32.4102C238.639 32.4102 237.422 32.1504 236.342 31.6309C235.275 31.1113 234.435 30.3184 233.819 29.252C233.204 28.1719 232.896 26.8047 232.896 25.1504C232.896 22.7168 233.751 20.9258 235.46 19.7773C237.169 18.6152 239.732 17.9727 243.15 17.8496L247.129 17.7266V16.7217C247.129 15.5186 246.814 14.6367 246.186 14.0762C245.557 13.5156 244.682 13.2354 243.561 13.2354C242.453 13.2354 241.366 13.3926 240.3 13.707C239.233 14.0215 238.167 14.418 237.101 14.8965L235.029 10.6719C236.246 10.0293 237.606 9.52344 239.11 9.1543C240.628 8.78516 242.193 8.60059 243.807 8.60059ZM247.129 21.377L244.709 21.459C242.686 21.5137 241.277 21.876 240.484 22.5459C239.705 23.2158 239.315 24.0977 239.315 25.1914C239.315 26.1484 239.596 26.832 240.156 27.2422C240.717 27.6387 241.448 27.8369 242.351 27.8369C243.69 27.8369 244.818 27.4404 245.734 26.6475C246.664 25.8545 247.129 24.7266 247.129 23.2637V21.377ZM272.6 8.6416C272.914 8.6416 273.276 8.66211 273.687 8.70312C274.11 8.73047 274.452 8.77148 274.712 8.82617L274.24 14.6914C274.035 14.623 273.741 14.5752 273.358 14.5479C272.989 14.5068 272.668 14.4863 272.395 14.4863C271.588 14.4863 270.802 14.5889 270.036 14.7939C269.284 14.999 268.607 15.334 268.006 15.7988C267.404 16.25 266.926 16.8516 266.57 17.6035C266.229 18.3418 266.058 19.251 266.058 20.3311V32H259.803V9.07227H264.54L265.463 12.9277H265.771C266.222 12.1484 266.782 11.4375 267.452 10.7949C268.136 10.1387 268.908 9.61914 269.77 9.23633C270.645 8.83984 271.588 8.6416 272.6 8.6416ZM288.268 8.60059C291.344 8.60059 293.702 9.27051 295.343 10.6104C296.983 11.9502 297.804 13.9873 297.804 16.7217V32H293.436L292.226 28.8828H292.062C291.405 29.7031 290.735 30.373 290.052 30.8926C289.368 31.4121 288.582 31.7949 287.693 32.041C286.805 32.2871 285.725 32.4102 284.453 32.4102C283.1 32.4102 281.883 32.1504 280.803 31.6309C279.736 31.1113 278.896 30.3184 278.28 29.252C277.665 28.1719 277.357 26.8047 277.357 25.1504C277.357 22.7168 278.212 20.9258 279.921 19.7773C281.63 18.6152 284.193 17.9727 287.611 17.8496L291.59 17.7266V16.7217C291.59 15.5186 291.275 14.6367 290.646 14.0762C290.018 13.5156 289.143 13.2354 288.021 13.2354C286.914 13.2354 285.827 13.3926 284.761 13.707C283.694 14.0215 282.628 14.418 281.562 14.8965L279.49 10.6719C280.707 10.0293 282.067 9.52344 283.571 9.1543C285.089 8.78516 286.654 8.60059 288.268 8.60059ZM291.59 21.377L289.17 21.459C287.146 21.5137 285.738 21.876 284.945 22.5459C284.166 23.2158 283.776 24.0977 283.776 25.1914C283.776 26.1484 284.057 26.832 284.617 27.2422C285.178 27.6387 285.909 27.8369 286.812 27.8369C288.151 27.8369 289.279 27.4404 290.195 26.6475C291.125 25.8545 291.59 24.7266 291.59 23.2637V21.377ZM310.519 32H304.264V0.0898438H310.519V32Z" fill="#141414"/>
</svg>
