<svg width="33" height="33" viewBox="0 0 33 33" fill="none" xmlns="http://www.w3.org/2000/svg">
<path d="M15.125 31.5562V28.8062C12.2604 28.4854 9.80258 27.2995 7.75154 25.2484C5.7005 23.1974 4.51456 20.7396 4.19373 17.875H1.44373V15.125H4.19373C4.51456 12.2604 5.7005 9.80258 7.75154 7.75154C9.80258 5.7005 12.2604 4.51456 15.125 4.19373V1.44373H17.875V4.19373C20.7396 4.51456 23.1974 5.7005 25.2484 7.75154C27.2995 9.80258 28.4854 12.2604 28.8062 15.125H31.5562V17.875H28.8062C28.4854 20.7396 27.2995 23.1974 25.2484 25.2484C23.1974 27.2995 20.7396 28.4854 17.875 28.8062V31.5562H15.125ZM16.5 26.125C19.1583 26.125 21.4271 25.1854 23.3062 23.3062C25.1854 21.4271 26.125 19.1583 26.125 16.5C26.125 13.8416 25.1854 11.5729 23.3062 9.69373C21.4271 7.81456 19.1583 6.87498 16.5 6.87498C13.8416 6.87498 11.5729 7.81456 9.69373 9.69373C7.81456 11.5729 6.87498 13.8416 6.87498 16.5C6.87498 19.1583 7.81456 21.4271 9.69373 23.3062C11.5729 25.1854 13.8416 26.125 16.5 26.125ZM16.5 22C14.9875 22 13.6927 21.4614 12.6156 20.3844C11.5385 19.3073 11 18.0125 11 16.5C11 14.9875 11.5385 13.6927 12.6156 12.6156C13.6927 11.5385 14.9875 11 16.5 11C18.0125 11 19.3073 11.5385 20.3844 12.6156C21.4614 13.6927 22 14.9875 22 16.5C22 18.0125 21.4614 19.3073 20.3844 20.3844C19.3073 21.4614 18.0125 22 16.5 22ZM16.5 19.25C17.2562 19.25 17.9036 18.9807 18.4422 18.4422C18.9807 17.9036 19.25 17.2562 19.25 16.5C19.25 15.7437 18.9807 15.0963 18.4422 14.5578C17.9036 14.0192 17.2562 13.75 16.5 13.75C15.7437 13.75 15.0963 14.0192 14.5578 14.5578C14.0192 15.0963 13.75 15.7437 13.75 16.5C13.75 17.2562 14.0192 17.9036 14.5578 18.4422C15.0963 18.9807 15.7437 19.25 16.5 19.25Z" fill="#150E00"/>
</svg>
